<mxfile host="65bd71144e">
    <diagram id="1_3Eq0y5QDDT1v4sdHKe" name="Page-1">
        <mxGraphModel dx="529" dy="771" grid="1" gridSize="10" guides="1" tooltips="1" connect="1" arrows="1" fold="1" page="1" pageScale="1" pageWidth="850" pageHeight="1100" math="0" shadow="0">
            <root>
                <mxCell id="0"/>
                <mxCell id="1" parent="0"/>
                <mxCell id="2" value="Authentication" style="rounded=0;whiteSpace=wrap;html=1;" vertex="1" parent="1">
                    <mxGeometry x="255" y="160" width="120" height="60" as="geometry"/>
                </mxCell>
                <mxCell id="3" value="App" style="rounded=0;whiteSpace=wrap;html=1;" vertex="1" parent="1">
                    <mxGeometry x="255" y="60" width="120" height="60" as="geometry"/>
                </mxCell>
                <mxCell id="6" value="signin" style="rounded=0;whiteSpace=wrap;html=1;" vertex="1" parent="1">
                    <mxGeometry x="115" y="250" width="120" height="60" as="geometry"/>
                </mxCell>
                <mxCell id="7" value="signup" style="rounded=0;whiteSpace=wrap;html=1;" vertex="1" parent="1">
                    <mxGeometry x="255" y="250" width="120" height="60" as="geometry"/>
                </mxCell>
                <mxCell id="8" value="user update" style="rounded=0;whiteSpace=wrap;html=1;" vertex="1" parent="1">
                    <mxGeometry x="395" y="250" width="120" height="60" as="geometry"/>
                </mxCell>
            </root>
        </mxGraphModel>
    </diagram>
</mxfile>